<svg width="300" height="300" viewBox="0 0 300 300" fill="none" xmlns="http://www.w3.org/2000/svg">
<path fill-rule="evenodd" clip-rule="evenodd" d="M9 0C4.02944 0 0 4.02943 0 8.99999V291C0 295.971 4.02943 300 8.99999 300H291C295.971 300 300 295.971 300 291V9C300 4.02944 295.971 0 291 0H9ZM187.201 188.537L189.202 173.1L188.821 165.763C188.821 160.363 190.155 157.663 192.823 157.663C192.251 156.266 191.965 154.392 191.965 152.041C191.965 149.691 193.395 144.99 196.253 137.938C197.524 134.635 198.35 132.38 198.731 131.173L196.73 128.981L197.397 128.695L198.064 128.981L198.731 124.407L198.54 123.454L202.924 109.733C209.848 91.6275 215.375 82.575 219.504 82.575H213.977C212.77 81.3045 210.483 80.6374 207.117 80.5739C203.75 80.4469 201.558 79.6845 200.542 78.287L187.582 78.6681L185.295 76V78.287C184.215 78.287 182.659 77.9058 180.626 77.1435C178.593 76.3812 177.037 76 175.957 76L173.86 78.287C169.668 76.7623 164.586 76 158.614 76L160.52 86.9583C160.52 90.4523 161.187 93.0886 162.521 94.8674C163.029 95.5662 163.76 96.3602 164.713 97.2496C165.665 98.139 166.142 99.1554 166.142 100.299C164.744 100.299 163.442 101.982 162.235 105.349C161.092 108.716 160.52 111.384 160.52 113.354V149.183C160.52 151.088 159.885 152.804 158.614 154.328V153.185C157.28 153.185 155.279 153.598 152.611 154.423C149.943 155.186 147.942 155.567 146.608 155.567V153.185C145.591 153.185 144.13 153.598 142.224 154.423C140.382 155.186 138.921 155.567 137.841 155.567L139.842 93.7239L137.841 91.3417C139.048 91.3417 141.144 87.8795 144.13 80.9551C145.273 78.287 146.099 76.6353 146.608 76C144.194 76 140.287 76.3812 134.887 77.1435C129.487 77.9058 125.39 78.287 122.595 78.287L122.785 78.8587C122.785 80.1292 122.372 80.7645 121.546 80.7645L121.26 80.5739L120.689 78.287C119.101 80.0022 114.558 81.5268 107.062 82.8609C99.6297 84.1314 90.6089 84.7667 80 84.7667C84.8915 85.2113 89.0525 87.3077 92.483 91.0558C95.9134 94.7403 97.6286 98.806 97.6286 103.253C97.6286 107.7 98.4227 113.099 100.011 119.452C100.773 122.374 101.313 124.63 101.631 126.218C109.19 163.889 112.97 196.732 112.97 224.747C112.017 224.112 111.096 223.794 110.207 223.794C109.381 223.794 108.873 223.953 108.682 224.271L112.97 228.368C115.384 227.987 118.338 226.24 121.832 223.127C122.912 222.111 123.833 221.603 124.596 221.603L131.933 221.984L132.314 222.365L132.123 223.794L139.842 219.602L140.033 194.35L138.984 184.154L137.174 185.107L139.842 181.962V179.771L153.564 177.579L155.374 179.771L156.137 179.485C156.327 179.485 156.549 179.612 156.804 179.866C157.058 180.12 157.185 180.406 157.185 180.723L155.374 190.729L155.469 199.019C155.469 209.692 154.262 215.028 151.848 215.028L153.564 219.602L157.089 217.41C157.089 218.808 156.804 220.745 156.232 223.223C155.724 225.764 155.438 227.638 155.374 228.845L157.089 226.081L160.52 228.368C159.948 228.559 159.662 228.845 159.662 229.226C159.662 229.607 160.075 230.211 160.901 231.036C161.79 231.926 162.267 232.466 162.33 232.656C165.126 232.656 166.523 230.719 166.523 226.844L166.142 224.461L170.049 228.368L170.906 228.559L175.48 225.891C175.48 226.018 175.512 226.081 175.576 226.081L175.766 225.891L176.719 228.368L173.86 234.657C175.83 234.657 177.577 234.117 179.101 233.038C180.689 231.958 181.484 229.829 181.484 226.653C181.484 223.477 182.119 217.759 183.389 209.501C184.66 201.242 185.295 194.985 185.295 190.729L183.771 191.682L187.201 188.537ZM155.374 259.147V239.422C154.294 240.692 153.437 242.948 152.801 246.188C152.166 249.427 151.848 252.286 151.848 254.764V259.147H155.374Z" fill="url(#paint0_linear_24_27)"/>
<defs>
<linearGradient id="paint0_linear_24_27" x1="-4.24087e-06" y1="10.6725" x2="289.681" y2="286.632" gradientUnits="userSpaceOnUse">
<stop stop-color="#00D1FF"/>
<stop offset="0.766904" stop-color="#FA04FF"/>
</linearGradient>
</defs>
</svg>
